font.ufo
<glyph name="dvKxA" format="1">
  <advance width="725"/>
  <unicode hex="0958"/>
  <outline>
    <contour>
      <point x="339" y="0" type="move" name="blwm_halant"/>
    </contour>
    <contour>
      <point x="339" y="0" type="move" name="blwm_Ukaar"/>
    </contour>
    <contour>
      <point x="386" y="0" type="move" name="blwm_VocalicR"/>
    </contour>
    <contour>
      <point x="386" y="623" type="move" name="abvm_Anusvara"/>
    </contour>
    <contour>
      <point x="339" y="0" type="move" name="blwm_Uukaar"/>
    </contour>
    <contour>
      <point x="386" y="623" type="move" name="abvm_Ekaar"/>
    </contour>
    <component base="dvKA"/>
    <component base="dvNukta" xOffset="304" yOffset="47"/>
  </outline>
</glyph>
<glyph name="dvDDxA" format="1">
  <advance width="475"/>
  <unicode hex="095C"/>
  <outline>
    <contour>
      <point x="218" y="-124" type="move" name="blwm_halant"/>
    </contour>
    <contour>
      <point x="230" y="-187" type="move" name="blwm_Ukaar"/>
    </contour>
    <contour>
      <point x="305" y="-187" type="move" name="blwm_VocalicR"/>
    </contour>
    <contour>
      <point x="268" y="623" type="move" name="abvm_Anusvara"/>
    </contour>
    <contour>
      <point x="216" y="-189" type="move" name="blwm_Uukaar"/>
    </contour>
    <contour>
      <point x="383" y="623" type="move" name="abvm_Ekaar"/>
    </contour>
    <component base="dvDDA"/>
    <component base="dvNukta" xOffset="376" yOffset="-34"/>
  </outline>
</glyph>
<glyph name="dvDDHxA" format="1">
  <advance width="485"/>
  <unicode hex="095D"/>
  <outline>
    <contour>
      <point x="224" y="-94" type="move" name="blwm_halant"/>
    </contour>
    <contour>
      <point x="256" y="-157" type="move" name="blwm_Ukaar"/>
    </contour>
    <contour>
      <point x="313" y="-157" type="move" name="blwm_VocalicR"/>
    </contour>
    <contour>
      <point x="292" y="623" type="move" name="abvm_Anusvara"/>
    </contour>
    <contour>
      <point x="225" y="-159" type="move" name="blwm_Uukaar"/>
    </contour>
    <contour>
      <point x="385" y="623" type="move" name="abvm_Ekaar"/>
    </contour>
    <component base="dvDDHA"/>
    <component base="dvNukta" xOffset="384" yOffset="-4"/>
  </outline>
</glyph>
<glyph name="dvPHxA" format="1">
  <advance width="739"/>
  <unicode hex="095E"/>
  <outline>
    <contour>
      <point x="352" y="0" type="move" name="blwm_halant"/>
    </contour>
    <contour>
      <point x="352" y="0" type="move" name="blwm_Ukaar"/>
    </contour>
    <contour>
      <point x="400" y="0" type="move" name="blwm_VocalicR"/>
    </contour>
    <contour>
      <point x="400" y="623" type="move" name="abvm_Anusvara"/>
    </contour>
    <contour>
      <point x="352" y="0" type="move" name="blwm_Uukaar"/>
    </contour>
    <contour>
      <point x="400" y="623" type="move" name="abvm_Ekaar"/>
    </contour>
    <component base="dvPHA"/>
    <component base="dvNukta" xOffset="296" yOffset="55"/>
  </outline>
</glyph>
<glyph name="dvCH_NA" format="1">
  <advance width="977"/>
  <outline>
    <contour>
      <point x="-2" y="623" type="line"/>
      <point x="-11" y="623"/>
      <point x="-14" y="619"/>
      <point x="-14" y="612" type="curve" smooth="yes"/>
      <point x="-14" y="593" type="line" smooth="yes"/>
      <point x="-14" y="585"/>
      <point x="-11" y="582"/>
      <point x="-2" y="581" type="curve" smooth="yes"/>
      <point x="113" y="581" type="line"/>
      <point x="113" y="577" type="line"/>
      <point x="87" y="563"/>
      <point x="76" y="535"/>
      <point x="76" y="493" type="curve" smooth="yes"/>
      <point x="76" y="427" type="line" smooth="yes"/>
      <point x="76" y="376"/>
      <point x="95" y="343"/>
      <point x="139" y="328" type="curve"/>
      <point x="139" y="324" type="line"/>
      <point x="95" y="310"/>
      <point x="76" y="275"/>
      <point x="76" y="220" type="curve" smooth="yes"/>
      <point x="76" y="173" type="line" smooth="yes"/>
      <point x="76" y="87"/>
      <point x="125" y="43"/>
      <point x="210" y="43" type="curve" smooth="yes"/>
      <point x="370" y="43" type="line" smooth="yes"/>
      <point x="457" y="43"/>
      <point x="508" y="101"/>
      <point x="508" y="182" type="curve" smooth="yes"/>
      <point x="508" y="355" type="line" smooth="yes"/>
      <point x="508" y="438"/>
      <point x="466" y="480"/>
      <point x="383" y="480" type="curve" smooth="yes"/>
      <point x="344" y="480" type="line" smooth="yes"/>
      <point x="335" y="480"/>
      <point x="331" y="476"/>
      <point x="331" y="469" type="curve" smooth="yes"/>
      <point x="331" y="449" type="line" smooth="yes"/>
      <point x="331" y="442"/>
      <point x="335" y="438"/>
      <point x="344" y="438" type="curve" smooth="yes"/>
      <point x="381" y="438" type="line" smooth="yes"/>
      <point x="437" y="438"/>
      <point x="461" y="411"/>
      <point x="461" y="355" type="curve" smooth="yes"/>
      <point x="461" y="187" type="line" smooth="yes"/>
      <point x="461" y="123"/>
      <point x="428" y="87"/>
      <point x="364" y="87" type="curve" smooth="yes"/>
      <point x="213" y="87" type="line" smooth="yes"/>
      <point x="150" y="87"/>
      <point x="125" y="114"/>
      <point x="125" y="177" type="curve" smooth="yes"/>
      <point x="125" y="219" type="line" smooth="yes"/>
      <point x="125" y="275"/>
      <point x="150" y="304"/>
      <point x="209" y="304" type="curve" smooth="yes"/>
      <point x="248" y="304" type="line" smooth="yes"/>
      <point x="257" y="304"/>
      <point x="260" y="309"/>
      <point x="260" y="315" type="curve" smooth="yes"/>
      <point x="260" y="337" type="line" smooth="yes"/>
      <point x="260" y="344"/>
      <point x="257" y="348"/>
      <point x="248" y="348" type="curve" smooth="yes"/>
      <point x="207" y="348" type="line" smooth="yes"/>
      <point x="153" y="348"/>
      <point x="125" y="377"/>
      <point x="125" y="431" type="curve" smooth="yes"/>
      <point x="125" y="493" type="line" smooth="yes"/>
      <point x="125" y="552"/>
      <point x="148" y="581"/>
      <point x="205" y="581" type="curve" smooth="yes"/>
      <point x="583" y="581" type="line" smooth="yes"/>
      <point x="592" y="582"/>
      <point x="595" y="585"/>
      <point x="595" y="593" type="curve" smooth="yes"/>
      <point x="595" y="612" type="line" smooth="yes"/>
      <point x="595" y="619"/>
      <point x="592" y="623"/>
      <point x="583" y="623" type="curve" smooth="yes"/>
    </contour>
    <contour>
      <point x="828" y="581" type="line"/>
      <point x="835" y="581"/>
      <point x="837" y="578"/>
      <point x="837" y="572" type="curve" smooth="yes"/>
      <point x="837" y="384" type="line" smooth="yes"/>
      <point x="837" y="378"/>
      <point x="835" y="375"/>
      <point x="828" y="375" type="curve"/>
      <point x="646" y="375" type="line" smooth="yes"/>
      <point x="582" y="375"/>
      <point x="549" y="335"/>
      <point x="549" y="280" type="curve" smooth="yes"/>
      <point x="549" y="258"/>
      <point x="554" y="229"/>
      <point x="564" y="206" type="curve" smooth="yes"/>
      <point x="567" y="198"/>
      <point x="573" y="195"/>
      <point x="580" y="195" type="curve" smooth="yes"/>
      <point x="600" y="195" type="line" smooth="yes"/>
      <point x="607" y="195"/>
      <point x="611" y="199"/>
      <point x="611" y="205" type="curve" smooth="yes"/>
      <point x="611" y="210"/>
      <point x="609" y="213"/>
      <point x="607" y="222" type="curve" smooth="yes"/>
      <point x="601" y="239"/>
      <point x="597" y="256"/>
      <point x="597" y="274" type="curve" smooth="yes"/>
      <point x="597" y="309"/>
      <point x="615" y="332"/>
      <point x="656" y="332" type="curve" smooth="yes"/>
      <point x="828" y="332" type="line" smooth="yes"/>
      <point x="835" y="332"/>
      <point x="837" y="328"/>
      <point x="837" y="322" type="curve" smooth="yes"/>
      <point x="837" y="12" type="line" smooth="yes"/>
      <point x="837" y="3"/>
      <point x="841" y="0"/>
      <point x="849" y="0" type="curve" smooth="yes"/>
      <point x="874" y="0" type="line" smooth="yes"/>
      <point x="881" y="0"/>
      <point x="885" y="3"/>
      <point x="885" y="12" type="curve" smooth="yes"/>
      <point x="885" y="572" type="line" smooth="yes"/>
      <point x="885" y="578"/>
      <point x="888" y="581"/>
      <point x="895" y="581" type="curve" smooth="yes"/>
      <point x="979" y="581" type="line" smooth="yes"/>
      <point x="988" y="581"/>
      <point x="991" y="585"/>
      <point x="991" y="593" type="curve" smooth="yes"/>
      <point x="991" y="612" type="line" smooth="yes"/>
      <point x="991" y="619"/>
      <point x="988" y="623"/>
      <point x="979" y="623" type="curve" smooth="yes"/>
      <point x="502" y="623" type="line" smooth="yes"/>
      <point x="493" y="623"/>
      <point x="490" y="619"/>
      <point x="490" y="612" type="curve" smooth="yes"/>
      <point x="490" y="593" type="line" smooth="yes"/>
      <point x="490" y="585"/>
      <point x="493" y="581"/>
      <point x="502" y="581" type="curve"/>
    </contour>
  </outline>
</glyph>
<glyph name="dvCH_RA" format="1">
  <advance width="581"/>
  <outline>
    <contour>
      <point x="272" y="-105" type="move" name="blwm_halant"/>
    </contour>
    <contour>
      <point x="317" y="-168" type="move" name="blwm_Ukaar"/>
    </contour>
    <contour>
      <point x="363" y="-168" type="move" name="blwm_VocalicR"/>
    </contour>
    <contour>
      <point x="309" y="623" type="move" name="abvm_Anusvara"/>
    </contour>
    <contour>
      <point x="273" y="-170" type="move" name="blwm_Uukaar"/>
    </contour>
    <contour>
      <point x="481" y="623" type="move" name="abvm_Ekaar"/>
    </contour>
    <component base="dvCHA"/>
    <component base="dvRashtrasign" xOffset="544" yOffset="73"/>
  </outline>
</glyph>
<glyph name="dvCH_VA" format="1">
  <advance width="581"/>
  <outline>
    <contour>
      <point x="273" y="-92" type="move" name="blwm_halant"/>
    </contour>
    <contour>
      <point x="321" y="-156" type="move" name="blwm_Ukaar"/>
    </contour>
    <contour>
      <point x="351" y="-156" type="move" name="blwm_VocalicR"/>
    </contour>
    <contour>
      <point x="309" y="623" type="move" name="abvm_Anusvara"/>
    </contour>
    <contour>
      <point x="273" y="-158" type="move" name="blwm_Uukaar"/>
    </contour>
    <contour>
      <point x="481" y="623" type="move" name="abvm_Ekaar"/>
    </contour>
    <contour>
      <point x="-2" y="623" type="line"/>
      <point x="-11" y="623"/>
      <point x="-14" y="619"/>
      <point x="-14" y="612" type="curve" smooth="yes"/>
      <point x="-14" y="593" type="line" smooth="yes"/>
      <point x="-14" y="585"/>
      <point x="-11" y="582"/>
      <point x="-2" y="581" type="curve" smooth="yes"/>
      <point x="113" y="581" type="line"/>
      <point x="113" y="577" type="line"/>
      <point x="87" y="563"/>
      <point x="76" y="535"/>
      <point x="76" y="493" type="curve" smooth="yes"/>
      <point x="76" y="459" type="line" smooth="yes"/>
      <point x="76" y="409"/>
      <point x="95" y="376"/>
      <point x="139" y="361" type="curve"/>
      <point x="139" y="357" type="line"/>
      <point x="95" y="342"/>
      <point x="76" y="308"/>
      <point x="76" y="252" type="curve" smooth="yes"/>
      <point x="76" y="238" type="line" smooth="yes"/>
      <point x="76" y="152"/>
      <point x="125" y="108"/>
      <point x="210" y="108" type="curve" smooth="yes"/>
      <point x="364" y="108" type="line" smooth="yes"/>
      <point x="450" y="108"/>
      <point x="508" y="168"/>
      <point x="508" y="261" type="curve" smooth="yes"/>
      <point x="508" y="341" type="line" smooth="yes"/>
      <point x="508" y="425"/>
      <point x="466" y="466"/>
      <point x="383" y="466" type="curve" smooth="yes"/>
      <point x="344" y="466" type="line" smooth="yes"/>
      <point x="335" y="466"/>
      <point x="331" y="462"/>
      <point x="331" y="455" type="curve" smooth="yes"/>
      <point x="331" y="436" type="line" smooth="yes"/>
      <point x="331" y="428"/>
      <point x="335" y="424"/>
      <point x="344" y="424" type="curve" smooth="yes"/>
      <point x="381" y="424" type="line" smooth="yes"/>
      <point x="437" y="424"/>
      <point x="461" y="398"/>
      <point x="461" y="341" type="curve" smooth="yes"/>
      <point x="461" y="251" type="line" smooth="yes"/>
      <point x="461" y="187"/>
      <point x="428" y="152"/>
      <point x="364" y="152" type="curve" smooth="yes"/>
      <point x="213" y="152" type="line" smooth="yes"/>
      <point x="150" y="152"/>
      <point x="125" y="179"/>
      <point x="125" y="241" type="curve" smooth="yes"/>
      <point x="125" y="251" type="line" smooth="yes"/>
      <point x="125" y="308"/>
      <point x="150" y="337"/>
      <point x="209" y="337" type="curve" smooth="yes"/>
      <point x="248" y="337" type="line" smooth="yes"/>
      <point x="257" y="337"/>
      <point x="260" y="341"/>
      <point x="260" y="348" type="curve" smooth="yes"/>
      <point x="260" y="369" type="line" smooth="yes"/>
      <point x="260" y="377"/>
      <point x="257" y="381"/>
      <point x="248" y="381" type="curve" smooth="yes"/>
      <point x="207" y="381" type="line" smooth="yes"/>
      <point x="153" y="381"/>
      <point x="125" y="409"/>
      <point x="125" y="464" type="curve" smooth="yes"/>
      <point x="125" y="493" type="line" smooth="yes"/>
      <point x="125" y="552"/>
      <point x="148" y="581"/>
      <point x="205" y="581" type="curve" smooth="yes"/>
      <point x="420" y="581" type="line" smooth="yes"/>
      <point x="427" y="581"/>
      <point x="429" y="578"/>
      <point x="429" y="572" type="curve" smooth="yes"/>
      <point x="429" y="482" type="line" smooth="yes"/>
      <point x="429" y="459"/>
      <point x="420" y="444"/>
      <point x="408" y="436" type="curve"/>
      <point x="456" y="436" type="line"/>
      <point x="469" y="443"/>
      <point x="478" y="460"/>
      <point x="478" y="484" type="curve" smooth="yes"/>
      <point x="478" y="573" type="line" smooth="yes"/>
      <point x="478" y="578"/>
      <point x="481" y="581"/>
      <point x="488" y="581" type="curve" smooth="yes"/>
      <point x="583" y="581" type="line" smooth="yes"/>
      <point x="592" y="582"/>
      <point x="595" y="585"/>
      <point x="595" y="593" type="curve" smooth="yes"/>
      <point x="595" y="612" type="line" smooth="yes"/>
      <point x="595" y="619"/>
      <point x="592" y="623"/>
      <point x="583" y="623" type="curve"/>
    </contour>
    <contour>
      <point x="431" y="167" type="line"/>
      <point x="431" y="45" type="line" smooth="yes"/>
      <point x="431" y="-16"/>
      <point x="399" y="-54"/>
      <point x="334" y="-54" type="curve" smooth="yes"/>
      <point x="241" y="-54" type="line" smooth="yes"/>
      <point x="177" y="-54"/>
      <point x="152" y="-26"/>
      <point x="152" y="35" type="curve" smooth="yes"/>
      <point x="152" y="77"/>
      <point x="173" y="108"/>
      <point x="228" y="108" type="curve"/>
      <point x="170" y="133" type="line"/>
      <point x="132" y="120"/>
      <point x="104" y="91"/>
      <point x="104" y="32" type="curve" smooth="yes"/>
      <point x="104" y="-52"/>
      <point x="151" y="-97"/>
      <point x="235" y="-97" type="curve" smooth="yes"/>
      <point x="339" y="-97" type="line" smooth="yes"/>
      <point x="424" y="-97"/>
      <point x="478" y="-41"/>
      <point x="478" y="46" type="curve" smooth="yes"/>
      <point x="478" y="167" type="line"/>
    </contour>
  </outline>
</glyph>
<glyph name="dvC_CH_VA" format="1">
  <advance width="913"/>
  <outline>
    <contour>
      <point x="605" y="-92" type="move" name="blwm_halant"/>
    </contour>
    <contour>
      <point x="659" y="-156" type="move" name="blwm_Ukaar"/>
    </contour>
    <contour>
      <point x="684" y="-156" type="move" name="blwm_VocalicR"/>
    </contour>
    <contour>
      <point x="641" y="623" type="move" name="abvm_Anusvara"/>
    </contour>
    <contour>
      <point x="603" y="-158" type="move" name="blwm_Uukaar"/>
    </contour>
    <contour>
      <point x="814" y="623" type="move" name="abvm_Ekaar"/>
    </contour>
    <contour>
      <point x="438" y="581" type="line"/>
      <point x="447" y="581"/>
      <point x="450" y="585"/>
      <point x="450" y="593" type="curve" smooth="yes"/>
      <point x="450" y="612" type="line" smooth="yes"/>
      <point x="450" y="619"/>
      <point x="447" y="623"/>
      <point x="438" y="623" type="curve"/>
      <point x="-2" y="623" type="line"/>
      <point x="-11" y="623"/>
      <point x="-14" y="619"/>
      <point x="-14" y="612" type="curve" smooth="yes"/>
      <point x="-14" y="593" type="line" smooth="yes"/>
      <point x="-14" y="585"/>
      <point x="-11" y="581"/>
      <point x="-2" y="581" type="curve"/>
    </contour>
    <contour>
      <point x="325" y="105" type="line"/>
      <point x="391" y="105"/>
      <point x="427" y="140"/>
      <point x="451" y="168" type="curve" smooth="yes"/>
      <point x="454" y="172"/>
      <point x="458" y="177"/>
      <point x="458" y="181" type="curve" smooth="yes"/>
      <point x="458" y="186"/>
      <point x="456" y="189"/>
      <point x="452" y="192" type="curve" smooth="yes"/>
      <point x="444" y="199" type="line" smooth="yes"/>
      <point x="439" y="203"/>
      <point x="437" y="204"/>
      <point x="433" y="204" type="curve" smooth="yes"/>
      <point x="428" y="204"/>
      <point x="423" y="199"/>
      <point x="419" y="194" type="curve" smooth="yes"/>
      <point x="393" y="169"/>
      <point x="372" y="149"/>
      <point x="325" y="149" type="curve"/>
      <point x="251" y="149" type="line"/>
      <point x="188" y="149"/>
      <point x="154" y="184"/>
      <point x="154" y="247" type="curve" smooth="yes"/>
      <point x="154" y="291" type="line" smooth="yes"/>
      <point x="154" y="354"/>
      <point x="186" y="390"/>
      <point x="246" y="390" type="curve" smooth="yes"/>
      <point x="308" y="390" type="line" smooth="yes"/>
      <point x="317" y="390"/>
      <point x="320" y="394"/>
      <point x="320" y="401" type="curve" smooth="yes"/>
      <point x="320" y="423" type="line" smooth="yes"/>
      <point x="320" y="430"/>
      <point x="317" y="434"/>
      <point x="308" y="434" type="curve" smooth="yes"/>
      <point x="34" y="434" type="line" smooth="yes"/>
      <point x="25" y="434"/>
      <point x="22" y="430"/>
      <point x="22" y="423" type="curve" smooth="yes"/>
      <point x="22" y="401" type="line" smooth="yes"/>
      <point x="22" y="394"/>
      <point x="25" y="390"/>
      <point x="34" y="390" type="curve" smooth="yes"/>
      <point x="151" y="390" type="line"/>
      <point x="151" y="386" type="line"/>
      <point x="120" y="368"/>
      <point x="106" y="334"/>
      <point x="106" y="290" type="curve" smooth="yes"/>
      <point x="106" y="245" type="line" smooth="yes"/>
      <point x="106" y="157"/>
      <point x="161" y="105"/>
      <point x="247" y="105" type="curve"/>
    </contour>
    <component base="dvCH_VA" xOffset="336"/>
  </outline>
</glyph>
<glyph name="dvDD_NA" format="1">
  <advance width="481"/>
  <outline>
    <contour>
      <point x="341" y="-235" type="move" name="blwm_halant"/>
    </contour>
    <contour>
      <point x="341" y="-235" type="move" name="blwm_Ukaar"/>
    </contour>
    <contour>
      <point x="389" y="-235" type="move" name="blwm_VocalicR"/>
    </contour>
    <contour>
      <point x="279" y="623" type="move" name="abvm_Anusvara"/>
    </contour>
    <contour>
      <point x="341" y="-235" type="move" name="blwm_Uukaar"/>
    </contour>
    <contour>
      <point x="389" y="623" type="move" name="abvm_Ekaar"/>
    </contour>
    <contour>
      <point x="-2" y="623" type="line"/>
      <point x="-11" y="623"/>
      <point x="-14" y="619"/>
      <point x="-14" y="612" type="curve" smooth="yes"/>
      <point x="-14" y="593" type="line" smooth="yes"/>
      <point x="-14" y="585"/>
      <point x="-11" y="581"/>
      <point x="-2" y="581" type="curve" smooth="yes"/>
      <point x="332" y="581" type="line" smooth="yes"/>
      <point x="339" y="581"/>
      <point x="342" y="578"/>
      <point x="342" y="572" type="curve" smooth="yes"/>
      <point x="342" y="494" type="line" smooth="yes"/>
      <point x="342" y="488"/>
      <point x="339" y="485"/>
      <point x="332" y="485" type="curve" smooth="yes"/>
      <point x="201" y="485" type="line" smooth="yes"/>
      <point x="121" y="485"/>
      <point x="75" y="452"/>
      <point x="75" y="377" type="curve" smooth="yes"/>
      <point x="75" y="371" type="line" smooth="yes"/>
      <point x="75" y="295"/>
      <point x="118" y="264"/>
      <point x="201" y="264" type="curve" smooth="yes"/>
      <point x="289" y="264" type="line" smooth="yes"/>
      <point x="346" y="264"/>
      <point x="370" y="247"/>
      <point x="370" y="195" type="curve" smooth="yes"/>
      <point x="370" y="189" type="line" smooth="yes"/>
      <point x="370" y="137"/>
      <point x="346" y="118"/>
      <point x="289" y="118" type="curve" smooth="yes"/>
      <point x="196" y="118" type="line" smooth="yes"/>
      <point x="139" y="118"/>
      <point x="117" y="135"/>
      <point x="117" y="195" type="curve" smooth="yes"/>
      <point x="117" y="203" type="line" smooth="yes"/>
      <point x="117" y="213"/>
      <point x="113" y="217"/>
      <point x="106" y="217" type="curve" smooth="yes"/>
      <point x="82" y="217" type="line" smooth="yes"/>
      <point x="74" y="217"/>
      <point x="70" y="213"/>
      <point x="70" y="203" type="curve" smooth="yes"/>
      <point x="70" y="194" type="line" smooth="yes"/>
      <point x="70" y="106"/>
      <point x="114" y="75"/>
      <point x="194" y="75" type="curve" smooth="yes"/>
      <point x="293" y="75" type="line" smooth="yes"/>
      <point x="374" y="75"/>
      <point x="419" y="111"/>
      <point x="419" y="186" type="curve" smooth="yes"/>
      <point x="419" y="199" type="line" smooth="yes"/>
      <point x="419" y="273"/>
      <point x="374" y="305"/>
      <point x="293" y="305" type="curve" smooth="yes"/>
      <point x="203" y="305" type="line" smooth="yes"/>
      <point x="146" y="305"/>
      <point x="123" y="322"/>
      <point x="123" y="373" type="curve" smooth="yes"/>
      <point x="123" y="424"/>
      <point x="146" y="441"/>
      <point x="203" y="441" type="curve" smooth="yes"/>
      <point x="364" y="441" type="line" smooth="yes"/>
      <point x="378" y="441"/>
      <point x="389" y="451"/>
      <point x="389" y="467" type="curve" smooth="yes"/>
      <point x="389" y="572" type="line" smooth="yes"/>
      <point x="389" y="578"/>
      <point x="392" y="581"/>
      <point x="399" y="581" type="curve" smooth="yes"/>
      <point x="483" y="581" type="line" smooth="yes"/>
      <point x="492" y="581"/>
      <point x="495" y="585"/>
      <point x="495" y="593" type="curve" smooth="yes"/>
      <point x="495" y="612" type="line" smooth="yes"/>
      <point x="495" y="619"/>
      <point x="492" y="623"/>
      <point x="483" y="623" type="curve" smooth="yes"/>
    </contour>
    <contour>
      <point x="341" y="114" type="line"/>
      <point x="341" y="2" type="line" smooth="yes"/>
      <point x="341" y="-3"/>
      <point x="338" y="-7"/>
      <point x="331" y="-7" type="curve" smooth="yes"/>
      <point x="170" y="-7" type="line" smooth="yes"/>
      <point x="107" y="-7"/>
      <point x="73" y="-47"/>
      <point x="73" y="-102" type="curve" smooth="yes"/>
      <point x="73" y="-124"/>
      <point x="78" y="-153"/>
      <point x="88" y="-176" type="curve" smooth="yes"/>
      <point x="91" y="-184"/>
      <point x="97" y="-186"/>
      <point x="104" y="-186" type="curve" smooth="yes"/>
      <point x="125" y="-186" type="line" smooth="yes"/>
      <point x="131" y="-186"/>
      <point x="135" y="-183"/>
      <point x="135" y="-177" type="curve" smooth="yes"/>
      <point x="135" y="-172"/>
      <point x="134" y="-168"/>
      <point x="131" y="-159" type="curve" smooth="yes"/>
      <point x="126" y="-142"/>
      <point x="121" y="-125"/>
      <point x="121" y="-108" type="curve" smooth="yes"/>
      <point x="121" y="-73"/>
      <point x="140" y="-50"/>
      <point x="181" y="-50" type="curve" smooth="yes"/>
      <point x="331" y="-50" type="line" smooth="yes"/>
      <point x="338" y="-50"/>
      <point x="341" y="-54"/>
      <point x="341" y="-60" type="curve" smooth="yes"/>
      <point x="341" y="-223" type="line" smooth="yes"/>
      <point x="341" y="-232"/>
      <point x="345" y="-235"/>
      <point x="352" y="-235" type="curve" smooth="yes"/>
      <point x="378" y="-235" type="line" smooth="yes"/>
      <point x="385" y="-235"/>
      <point x="389" y="-232"/>
      <point x="389" y="-223" type="curve" smooth="yes"/>
      <point x="389" y="114" type="line"/>
    </contour>
  </outline>
</glyph>
<glyph name="dvD_Y_BHA" format="1">
  <advance width="607"/>
  <outline>
    <contour>
      <point x="408" y="141" type="line"/>
      <point x="242" y="-12" type="line" smooth="yes"/>
      <point x="240" y="-14"/>
      <point x="236" y="-17"/>
      <point x="233" y="-17" type="curve" smooth="yes"/>
      <point x="231" y="-17"/>
      <point x="228" y="-16"/>
      <point x="224" y="-13" type="curve" smooth="yes"/>
      <point x="219" y="-7"/>
      <point x="187" y="25"/>
      <point x="180" y="25" type="curve" smooth="yes"/>
      <point x="154" y="46"/>
      <point x="125" y="51"/>
      <point x="96" y="43" type="curve" smooth="yes"/>
      <point x="74" y="40"/>
      <point x="54" y="31"/>
      <point x="30" y="9" type="curve"/>
      <point x="28" y="5"/>
      <point x="27" y="3"/>
      <point x="29" y="0" type="curve" smooth="yes"/>
      <point x="29" y="-2"/>
      <point x="38" y="-10"/>
      <point x="39" y="-12" type="curve" smooth="yes"/>
      <point x="40" y="-13"/>
      <point x="46" y="-19"/>
      <point x="47" y="-19" type="curve" smooth="yes"/>
      <point x="50" y="-21"/>
      <point x="53" y="-21"/>
      <point x="55" y="-20" type="curve" smooth="yes"/>
      <point x="57" y="-20"/>
      <point x="60" y="-18"/>
      <point x="61" y="-16" type="curve" smooth="yes"/>
      <point x="81" y="1"/>
      <point x="98" y="10"/>
      <point x="116" y="10" type="curve" smooth="yes"/>
      <point x="135" y="10"/>
      <point x="149" y="2"/>
      <point x="166" y="-16" type="curve" smooth="yes"/>
      <point x="296" y="-158" type="line" smooth="yes"/>
      <point x="299" y="-162"/>
      <point x="302" y="-163"/>
      <point x="305" y="-163" type="curve" smooth="yes"/>
      <point x="307" y="-163"/>
      <point x="309" y="-163"/>
      <point x="312" y="-160" type="curve" smooth="yes"/>
      <point x="330" y="-143" type="line"/>
      <point x="332" y="-140"/>
      <point x="334" y="-138"/>
      <point x="334" y="-135" type="curve" smooth="yes"/>
      <point x="334" y="-132"/>
      <point x="332" y="-129"/>
      <point x="330" y="-126" type="curve" smooth="yes"/>
      <point x="269" y="-61" type="line" smooth="yes"/>
      <point x="266" y="-57"/>
      <point x="265" y="-54"/>
      <point x="265" y="-52" type="curve" smooth="yes"/>
      <point x="265" y="-50"/>
      <point x="267" y="-47"/>
      <point x="270" y="-44" type="curve" smooth="yes"/>
      <point x="467" y="140" type="line"/>
    </contour>
    <contour>
      <point x="214" y="497" type="line"/>
      <point x="131" y="497"/>
      <point x="88" y="462"/>
      <point x="88" y="390" type="curve" smooth="yes"/>
      <point x="88" y="343"/>
      <point x="107" y="315"/>
      <point x="139" y="301" type="curve"/>
      <point x="139" y="297" type="line"/>
      <point x="105" y="281"/>
      <point x="88" y="252"/>
      <point x="88" y="209" type="curve" smooth="yes"/>
      <point x="88" y="133"/>
      <point x="133" y="97"/>
      <point x="218" y="97" type="curve" smooth="yes"/>
      <point x="374" y="97" type="line" smooth="yes"/>
      <point x="413" y="97"/>
      <point x="432" y="113"/>
      <point x="463" y="135" type="curve"/>
      <point x="467" y="135" type="line"/>
      <point x="467" y="-152" type="line" smooth="yes"/>
      <point x="467" y="-161"/>
      <point x="471" y="-164"/>
      <point x="479" y="-164" type="curve" smooth="yes"/>
      <point x="504" y="-164" type="line" smooth="yes"/>
      <point x="511" y="-164"/>
      <point x="516" y="-161"/>
      <point x="516" y="-152" type="curve" smooth="yes"/>
      <point x="516" y="572" type="line" smooth="yes"/>
      <point x="516" y="578"/>
      <point x="518" y="581"/>
      <point x="525" y="581" type="curve" smooth="yes"/>
      <point x="609" y="581" type="line"/>
      <point x="618" y="581"/>
      <point x="621" y="585"/>
      <point x="621" y="593" type="curve" smooth="yes"/>
      <point x="621" y="612" type="line" smooth="yes"/>
      <point x="621" y="619"/>
      <point x="618" y="623"/>
      <point x="609" y="623" type="curve" smooth="yes"/>
      <point x="-2" y="623" type="line" smooth="yes"/>
      <point x="-11" y="623"/>
      <point x="-14" y="619"/>
      <point x="-14" y="612" type="curve" smooth="yes"/>
      <point x="-14" y="593" type="line" smooth="yes"/>
      <point x="-14" y="585"/>
      <point x="-11" y="581"/>
      <point x="-2" y="581" type="curve" smooth="yes"/>
      <point x="267" y="581" type="line" smooth="yes"/>
      <point x="274" y="581"/>
      <point x="277" y="578"/>
      <point x="277" y="572" type="curve" smooth="yes"/>
      <point x="277" y="506" type="line" smooth="yes"/>
      <point x="277" y="501"/>
      <point x="274" y="497"/>
      <point x="267" y="497" type="curve" smooth="yes"/>
    </contour>
    <contour>
      <point x="299" y="458" type="line"/>
      <point x="313" y="458"/>
      <point x="324" y="467"/>
      <point x="324" y="483" type="curve" smooth="yes"/>
      <point x="324" y="572" type="line" smooth="yes"/>
      <point x="324" y="578"/>
      <point x="327" y="581"/>
      <point x="334" y="581" type="curve" smooth="yes"/>
      <point x="458" y="581" type="line"/>
      <point x="465" y="581"/>
      <point x="467" y="578"/>
      <point x="467" y="572" type="curve" smooth="yes"/>
      <point x="467" y="230" type="line" smooth="yes"/>
      <point x="467" y="171"/>
      <point x="438" y="141"/>
      <point x="372" y="141" type="curve" smooth="yes"/>
      <point x="218" y="141" type="line" smooth="yes"/>
      <point x="161" y="141"/>
      <point x="136" y="159"/>
      <point x="136" y="211" type="curve" smooth="yes"/>
      <point x="136" y="259"/>
      <point x="158" y="279"/>
      <point x="218" y="279" type="curve" smooth="yes"/>
      <point x="280" y="279" type="line" smooth="yes"/>
      <point x="289" y="279"/>
      <point x="292" y="283"/>
      <point x="292" y="290" type="curve" smooth="yes"/>
      <point x="292" y="309" type="line" smooth="yes"/>
      <point x="292" y="317"/>
      <point x="289" y="321"/>
      <point x="280" y="321" type="curve" smooth="yes"/>
      <point x="218" y="321" type="line" smooth="yes"/>
      <point x="160" y="321"/>
      <point x="136" y="339"/>
      <point x="136" y="389" type="curve" smooth="yes"/>
      <point x="136" y="440"/>
      <point x="160" y="458"/>
      <point x="221" y="458" type="curve" smooth="yes"/>
    </contour>
  </outline>
</glyph>
<glyph name="dvD_Y_RA" format="1">
  <advance width="595"/>
  <outline>
    <contour>
      <point x="202" y="489" type="line"/>
      <point x="118" y="489"/>
      <point x="76" y="455"/>
      <point x="76" y="380" type="curve" smooth="yes"/>
      <point x="76" y="373" type="line" smooth="yes"/>
      <point x="76" y="329"/>
      <point x="94" y="300"/>
      <point x="126" y="286" type="curve"/>
      <point x="126" y="282" type="line"/>
      <point x="93" y="266"/>
      <point x="76" y="236"/>
      <point x="76" y="194" type="curve" smooth="yes"/>
      <point x="76" y="168" type="line" smooth="yes"/>
      <point x="76" y="93"/>
      <point x="121" y="58"/>
      <point x="205" y="58" type="curve" smooth="yes"/>
      <point x="362" y="58" type="line" smooth="yes"/>
      <point x="401" y="58"/>
      <point x="424" y="68"/>
      <point x="451" y="90" type="curve"/>
      <point x="455" y="90" type="line"/>
      <point x="455" y="12" type="line" smooth="yes"/>
      <point x="455" y="3"/>
      <point x="459" y="0"/>
      <point x="466" y="0" type="curve" smooth="yes"/>
      <point x="492" y="0" type="line" smooth="yes"/>
      <point x="499" y="0"/>
      <point x="503" y="3"/>
      <point x="503" y="12" type="curve" smooth="yes"/>
      <point x="503" y="572" type="line" smooth="yes"/>
      <point x="503" y="578"/>
      <point x="505" y="581"/>
      <point x="513" y="581" type="curve"/>
      <point x="597" y="581" type="line"/>
      <point x="606" y="581"/>
      <point x="609" y="585"/>
      <point x="609" y="593" type="curve" smooth="yes"/>
      <point x="609" y="612" type="line" smooth="yes"/>
      <point x="609" y="619"/>
      <point x="606" y="623"/>
      <point x="597" y="623" type="curve" smooth="yes"/>
      <point x="-2" y="623" type="line" smooth="yes"/>
      <point x="-11" y="623"/>
      <point x="-14" y="619"/>
      <point x="-14" y="612" type="curve" smooth="yes"/>
      <point x="-14" y="593" type="line" smooth="yes"/>
      <point x="-14" y="585"/>
      <point x="-11" y="581"/>
      <point x="-2" y="581" type="curve" smooth="yes"/>
      <point x="255" y="581" type="line" smooth="yes"/>
      <point x="262" y="581"/>
      <point x="264" y="578"/>
      <point x="264" y="572" type="curve" smooth="yes"/>
      <point x="264" y="499" type="line" smooth="yes"/>
      <point x="264" y="493"/>
      <point x="262" y="489"/>
      <point x="255" y="489" type="curve" smooth="yes"/>
    </contour>
    <contour>
      <point x="287" y="448" type="line"/>
      <point x="301" y="448"/>
      <point x="312" y="457"/>
      <point x="312" y="473" type="curve" smooth="yes"/>
      <point x="312" y="572" type="line" smooth="yes"/>
      <point x="312" y="578"/>
      <point x="314" y="581"/>
      <point x="321" y="581" type="curve" smooth="yes"/>
      <point x="445" y="581" type="line"/>
      <point x="452" y="581"/>
      <point x="455" y="578"/>
      <point x="455" y="572" type="curve"/>
      <point x="455" y="189" type="line" smooth="yes"/>
      <point x="455" y="130"/>
      <point x="426" y="100"/>
      <point x="360" y="100" type="curve" smooth="yes"/>
      <point x="205" y="100" type="line" smooth="yes"/>
      <point x="148" y="100"/>
      <point x="123" y="119"/>
      <point x="123" y="170" type="curve" smooth="yes"/>
      <point x="123" y="194" type="line" smooth="yes"/>
      <point x="123" y="243"/>
      <point x="146" y="263"/>
      <point x="205" y="263" type="curve" smooth="yes"/>
      <point x="267" y="263" type="line" smooth="yes"/>
      <point x="276" y="263"/>
      <point x="279" y="266"/>
      <point x="279" y="274" type="curve" smooth="yes"/>
      <point x="279" y="295" type="line" smooth="yes"/>
      <point x="279" y="303"/>
      <point x="276" y="307"/>
      <point x="267" y="307" type="curve" smooth="yes"/>
      <point x="205" y="307" type="line" smooth="yes"/>
      <point x="147" y="307"/>
      <point x="123" y="324"/>
      <point x="123" y="375" type="curve" smooth="yes"/>
      <point x="123" y="379" type="line" smooth="yes"/>
      <point x="123" y="430"/>
      <point x="147" y="448"/>
      <point x="208" y="448" type="curve" smooth="yes"/>
    </contour>
    <contour>
      <point x="399" y="102" type="line"/>
      <point x="241" y="-37" type="line" smooth="yes"/>
      <point x="237" y="-40"/>
      <point x="236" y="-43"/>
      <point x="236" y="-47" type="curve" smooth="yes"/>
      <point x="236" y="-52"/>
      <point x="239" y="-55"/>
      <point x="246" y="-55" type="curve" smooth="yes"/>
      <point x="276" y="-55" type="line" smooth="yes"/>
      <point x="284" y="-55"/>
      <point x="290" y="-50"/>
      <point x="295" y="-46" type="curve" smooth="yes"/>
      <point x="300" y="-40"/>
      <point x="458" y="96"/>
      <point x="470" y="110" type="curve"/>
    </contour>
  </outline>
</glyph>
<glyph name="dvG_DA" format="1">
  <advance width="748"/>
  <outline>
    <contour>
      <point x="627" y="4" type="move" name="blwm_halant"/>
    </contour>
    <contour>
      <point x="627" y="0" type="move" name="blwm_Ukaar"/>
    </contour>
    <contour>
      <point x="673" y="0" type="move" name="blwm_VocalicR"/>
    </contour>
    <contour>
      <point x="533" y="623" type="move" name="abvm_Anusvara"/>
    </contour>
    <contour>
      <point x="627" y="0" type="move" name="blwm_Uukaar"/>
    </contour>
    <contour>
      <point x="658" y="623" type="move" name="abvm_Ekaar"/>
    </contour>
    <component base="dvG"/>
    <component base="dvDA" xOffset="259"/>
  </outline>
</glyph>
<glyph name="dvK_DA" format="1">
  <advance width="1009"/>
  <outline>
    <contour>
      <point x="888" y="4" type="move" name="blwm_halant"/>
    </contour>
    <contour>
      <point x="888" y="0" type="move" name="blwm_Ukaar"/>
    </contour>
    <contour>
      <point x="934" y="0" type="move" name="blwm_VocalicR"/>
    </contour>
    <contour>
      <point x="794" y="623" type="move" name="abvm_Anusvara"/>
    </contour>
    <contour>
      <point x="888" y="0" type="move" name="blwm_Uukaar"/>
    </contour>
    <contour>
      <point x="919" y="623" type="move" name="abvm_Ekaar"/>
    </contour>
    <component base="dvDA" xOffset="520"/>
    <component base="dvK"/>
  </outline>
</glyph>
<glyph name="dvK_TTA" format="1">
  <advance width="984"/>
  <outline>
    <contour>
      <point x="723" y="43" type="move" name="blwm_halant"/>
    </contour>
    <contour>
      <point x="761" y="-18" type="move" name="blwm_Ukaar"/>
    </contour>
    <contour>
      <point x="856" y="68" type="move" name="blwm_Rashtra"/>
    </contour>
    <contour>
      <point x="811" y="-18" type="move" name="blwm_VocalicR"/>
    </contour>
    <contour>
      <point x="786" y="623" type="move" name="abvm_Anusvara"/>
    </contour>
    <contour>
      <point x="722" y="-20" type="move" name="blwm_Uukaar"/>
    </contour>
    <contour>
      <point x="876" y="623" type="move" name="abvm_Ekaar"/>
    </contour>
    <component base="dvTTA" xOffset="499"/>
    <component base="dvK"/>
  </outline>
</glyph>
<glyph name="dvKx_RA" format="1">
  <advance width="725"/>
  <outline>
    <contour>
      <point x="339" y="0" type="move" name="blwm_halant"/>
    </contour>
    <contour>
      <point x="339" y="0" type="move" name="blwm_Ukaar"/>
    </contour>
    <contour>
      <point x="386" y="0" type="move" name="blwm_VocalicR"/>
    </contour>
    <contour>
      <point x="386" y="623" type="move" name="abvm_Anusvara"/>
    </contour>
    <contour>
      <point x="339" y="0" type="move" name="blwm_Uukaar"/>
    </contour>
    <contour>
      <point x="386" y="623" type="move" name="abvm_Ekaar"/>
    </contour>
    <component base="dvK_RA"/>
    <component base="dvNukta" xOffset="372" yOffset="-14"/>
  </outline>
</glyph>
<glyph name="dvL_DDHA" format="1">
  <advance width="924"/>
  <outline>
    <contour>
      <point x="673" y="43" type="move" name="blwm_halant"/>
    </contour>
    <contour>
      <point x="697" y="-18" type="move" name="blwm_Ukaar"/>
    </contour>
    <contour>
      <point x="804" y="68" type="move" name="blwm_Rashtra"/>
    </contour>
    <contour>
      <point x="753" y="-18" type="move" name="blwm_VocalicR"/>
    </contour>
    <contour>
      <point x="731" y="623" type="move" name="abvm_Anusvara"/>
    </contour>
    <contour>
      <point x="663" y="-20" type="move" name="blwm_Uukaar"/>
    </contour>
    <contour>
      <point x="824" y="623" type="move" name="abvm_Ekaar"/>
    </contour>
    <component base="dvL"/>
    <component base="dvDDHA" xOffset="439"/>
  </outline>
</glyph>
<glyph name="dvL_D_RA" format="1">
  <advance width="933"/>
  <outline>
    <contour>
      <point x="812" y="0" type="move" name="blwm_halant"/>
    </contour>
    <contour>
      <point x="812" y="0" type="move" name="blwm_Ukaar"/>
    </contour>
    <contour>
      <point x="858" y="0" type="move" name="blwm_VocalicR"/>
    </contour>
    <contour>
      <point x="721" y="623" type="move" name="abvm_Anusvara"/>
    </contour>
    <contour>
      <point x="812" y="0" type="move" name="blwm_Uukaar"/>
    </contour>
    <contour>
      <point x="842" y="623" type="move" name="abvm_Ekaar"/>
    </contour>
    <component base="dvL"/>
    <component base="dvD_RA" xOffset="445"/>
  </outline>
</glyph>
<glyph name="dvL_KA" format="1">
  <advance width="1182"/>
  <outline>
    <contour>
      <point x="795" y="0" type="move" name="blwm_halant"/>
    </contour>
    <contour>
      <point x="795" y="0" type="move" name="blwm_Ukaar"/>
    </contour>
    <contour>
      <point x="843" y="0" type="move" name="blwm_VocalicR"/>
    </contour>
    <contour>
      <point x="843" y="623" type="move" name="abvm_Anusvara"/>
    </contour>
    <contour>
      <point x="795" y="0" type="move" name="blwm_Uukaar"/>
    </contour>
    <contour>
      <point x="843" y="623" type="move" name="abvm_Ekaar"/>
    </contour>
    <component base="dvL"/>
    <component base="dvKA" xOffset="457"/>
  </outline>
</glyph>
<glyph name="dvL_TTA" format="1">
  <advance width="929"/>
  <outline>
    <contour>
      <point x="671" y="43" type="move" name="blwm_halant"/>
    </contour>
    <contour>
      <point x="709" y="-18" type="move" name="blwm_Ukaar"/>
    </contour>
    <contour>
      <point x="803" y="68" type="move" name="blwm_Rashtra"/>
    </contour>
    <contour>
      <point x="759" y="-18" type="move" name="blwm_VocalicR"/>
    </contour>
    <contour>
      <point x="733" y="623" type="move" name="abvm_Anusvara"/>
    </contour>
    <contour>
      <point x="669" y="-20" type="move" name="blwm_Uukaar"/>
    </contour>
    <contour>
      <point x="824" y="623" type="move" name="abvm_Ekaar"/>
    </contour>
    <component base="dvL"/>
    <component base="dvTTA" xOffset="445"/>
  </outline>
</glyph>
<glyph name="dvL_TTHA" format="1">
  <advance width="953"/>
  <outline>
    <contour>
      <point x="666" y="43" type="move" name="blwm_halant"/>
    </contour>
    <contour>
      <point x="694" y="-18" type="move" name="blwm_Ukaar"/>
    </contour>
    <contour>
      <point x="799" y="68" type="move" name="blwm_Rashtra"/>
    </contour>
    <contour>
      <point x="757" y="-18" type="move" name="blwm_VocalicR"/>
    </contour>
    <contour>
      <point x="722" y="623" type="move" name="abvm_Anusvara"/>
    </contour>
    <contour>
      <point x="664" y="-20" type="move" name="blwm_Uukaar"/>
    </contour>
    <contour>
      <point x="832" y="623" type="move" name="abvm_Ekaar"/>
    </contour>
    <component base="dvL"/>
    <component base="dvTTHA" xOffset="441"/>
  </outline>
</glyph>
<glyph name="dvNN_DDHA" format="1">
  <advance width="908"/>
  <outline>
    <contour>
      <point x="658" y="43" type="move" name="blwm_halant"/>
    </contour>
    <contour>
      <point x="682" y="-18" type="move" name="blwm_Ukaar"/>
    </contour>
    <contour>
      <point x="788" y="68" type="move" name="blwm_Rashtra"/>
    </contour>
    <contour>
      <point x="737" y="-18" type="move" name="blwm_VocalicR"/>
    </contour>
    <contour>
      <point x="715" y="623" type="move" name="abvm_Anusvara"/>
    </contour>
    <contour>
      <point x="648" y="-20" type="move" name="blwm_Uukaar"/>
    </contour>
    <contour>
      <point x="808" y="623" type="move" name="abvm_Ekaar"/>
    </contour>
    <component base="dvNN"/>
    <component base="dvDDHA" xOffset="423"/>
  </outline>
</glyph>
<glyph name="dvNN_TTA" format="1">
  <advance width="908"/>
  <outline>
    <contour>
      <point x="657" y="43" type="move" name="blwm_halant"/>
    </contour>
    <contour>
      <point x="695" y="-18" type="move" name="blwm_Ukaar"/>
    </contour>
    <contour>
      <point x="790" y="68" type="move" name="blwm_Rashtra"/>
    </contour>
    <contour>
      <point x="745" y="-18" type="move" name="blwm_VocalicR"/>
    </contour>
    <contour>
      <point x="720" y="623" type="move" name="abvm_Anusvara"/>
    </contour>
    <contour>
      <point x="656" y="-20" type="move" name="blwm_Uukaar"/>
    </contour>
    <contour>
      <point x="810" y="623" type="move" name="abvm_Ekaar"/>
    </contour>
    <component base="dvNN"/>
    <component base="dvTTA" xOffset="423"/>
  </outline>
</glyph>
<glyph name="dvNN_TTHA" format="1">
  <advance width="936"/>
  <outline>
    <contour>
      <point x="650" y="43" type="move" name="blwm_halant"/>
    </contour>
    <contour>
      <point x="678" y="-18" type="move" name="blwm_Ukaar"/>
    </contour>
    <contour>
      <point x="783" y="68" type="move" name="blwm_Rashtra"/>
    </contour>
    <contour>
      <point x="741" y="-18" type="move" name="blwm_VocalicR"/>
    </contour>
    <contour>
      <point x="707" y="623" type="move" name="abvm_Anusvara"/>
    </contour>
    <contour>
      <point x="649" y="-20" type="move" name="blwm_Uukaar"/>
    </contour>
    <contour>
      <point x="816" y="623" type="move" name="abvm_Ekaar"/>
    </contour>
    <component base="dvNN"/>
    <component base="dvTTHA" xOffset="424"/>
  </outline>
</glyph>
<glyph name="dvN_DA" format="1">
  <advance width="724"/>
  <outline>
    <contour>
      <point x="603" y="4" type="move" name="blwm_halant"/>
    </contour>
    <contour>
      <point x="603" y="0" type="move" name="blwm_Ukaar"/>
    </contour>
    <contour>
      <point x="649" y="0" type="move" name="blwm_VocalicR"/>
    </contour>
    <contour>
      <point x="509" y="623" type="move" name="abvm_Anusvara"/>
    </contour>
    <contour>
      <point x="603" y="0" type="move" name="blwm_Uukaar"/>
    </contour>
    <contour>
      <point x="634" y="623" type="move" name="abvm_Ekaar"/>
    </contour>
    <component base="dvN"/>
    <component base="dvDA" xOffset="235"/>
  </outline>
</glyph>
<glyph name="dvN_PHA" format="1">
  <advance width="970"/>
  <outline>
    <contour>
      <point x="583" y="0" type="move" name="blwm_halant"/>
    </contour>
    <contour>
      <point x="583" y="0" type="move" name="blwm_Ukaar"/>
    </contour>
    <contour>
      <point x="631" y="0" type="move" name="blwm_VocalicR"/>
    </contour>
    <contour>
      <point x="631" y="623" type="move" name="abvm_Anusvara"/>
    </contour>
    <contour>
      <point x="583" y="0" type="move" name="blwm_Uukaar"/>
    </contour>
    <contour>
      <point x="631" y="623" type="move" name="abvm_Ekaar"/>
    </contour>
    <component base="dvPHA" xOffset="231"/>
    <component base="dvN"/>
  </outline>
</glyph>
<glyph name="dvN_TTA" format="1">
  <advance width="715"/>
  <outline>
    <contour>
      <point x="456" y="43" type="move" name="blwm_halant"/>
    </contour>
    <contour>
      <point x="494" y="-18" type="move" name="blwm_Ukaar"/>
    </contour>
    <contour>
      <point x="589" y="68" type="move" name="blwm_Rashtra"/>
    </contour>
    <contour>
      <point x="544" y="-18" type="move" name="blwm_VocalicR"/>
    </contour>
    <contour>
      <point x="519" y="623" type="move" name="abvm_Anusvara"/>
    </contour>
    <contour>
      <point x="455" y="-20" type="move" name="blwm_Uukaar"/>
    </contour>
    <contour>
      <point x="609" y="623" type="move" name="abvm_Ekaar"/>
    </contour>
    <component base="dvTTA" xOffset="230"/>
    <component base="dvN"/>
  </outline>
</glyph>
<glyph name="dvPH_TTA" format="1">
  <advance width="1006"/>
  <outline>
    <contour>
      <point x="747" y="43" type="move" name="blwm_halant"/>
    </contour>
    <contour>
      <point x="786" y="-18" type="move" name="blwm_Ukaar"/>
    </contour>
    <contour>
      <point x="880" y="68" type="move" name="blwm_Rashtra"/>
    </contour>
    <contour>
      <point x="836" y="-18" type="move" name="blwm_VocalicR"/>
    </contour>
    <contour>
      <point x="810" y="623" type="move" name="abvm_Anusvara"/>
    </contour>
    <contour>
      <point x="746" y="-20" type="move" name="blwm_Uukaar"/>
    </contour>
    <contour>
      <point x="901" y="623" type="move" name="abvm_Ekaar"/>
    </contour>
    <component base="dvTTA" xOffset="521"/>
    <component base="dvPH"/>
  </outline>
</glyph>
<glyph name="dvSHA.amvR" format="1">
  <advance width="558"/>
  <outline>
    <contour>
      <point x="466" y="22" type="move" name="blwm_VocalicR"/>
    </contour>
    <contour>
      <point x="418" y="20" type="line"/>
      <point x="418" y="11"/>
      <point x="422" y="8"/>
      <point x="429" y="8" type="curve" smooth="yes"/>
      <point x="455" y="8" type="line" smooth="yes"/>
      <point x="462" y="8"/>
      <point x="466" y="11"/>
      <point x="466" y="20" type="curve" smooth="yes"/>
      <point x="466" y="572" type="line"/>
      <point x="466" y="578"/>
      <point x="468" y="581"/>
      <point x="476" y="581" type="curve" smooth="yes"/>
      <point x="560" y="581" type="line" smooth="yes"/>
      <point x="569" y="581"/>
      <point x="572" y="585"/>
      <point x="572" y="593" type="curve" smooth="yes"/>
      <point x="572" y="612" type="line" smooth="yes"/>
      <point x="572" y="619"/>
      <point x="569" y="623"/>
      <point x="560" y="623" type="curve" smooth="yes"/>
      <point x="440" y="623" type="line" smooth="yes"/>
      <point x="427" y="623"/>
      <point x="418" y="612"/>
      <point x="418" y="599" type="curve" smooth="yes"/>
    </contour>
    <contour>
      <point x="44" y="219" type="line"/>
      <point x="47" y="216"/>
      <point x="50" y="214"/>
      <point x="54" y="214" type="curve" smooth="yes"/>
      <point x="57" y="214"/>
      <point x="61" y="216"/>
      <point x="64" y="218" type="curve" smooth="yes"/>
      <point x="231" y="324" type="line" smooth="yes"/>
      <point x="286" y="358"/>
      <point x="336" y="404"/>
      <point x="336" y="493" type="curve" smooth="yes"/>
      <point x="336" y="586"/>
      <point x="289" y="624"/>
      <point x="202" y="624" type="curve" smooth="yes"/>
      <point x="110" y="624"/>
      <point x="66" y="586"/>
      <point x="66" y="495" type="curve" smooth="yes"/>
      <point x="66" y="414"/>
      <point x="112" y="369"/>
      <point x="165" y="335" type="curve" smooth="yes"/>
      <point x="426" y="168" type="line"/>
      <point x="445" y="211" type="line"/>
      <point x="189" y="373" type="line" smooth="yes"/>
      <point x="147" y="399"/>
      <point x="114" y="434"/>
      <point x="114" y="494" type="curve" smooth="yes"/>
      <point x="114" y="560"/>
      <point x="140" y="582"/>
      <point x="202" y="582" type="curve" smooth="yes"/>
      <point x="265" y="582"/>
      <point x="288" y="560"/>
      <point x="288" y="494" type="curve" smooth="yes"/>
      <point x="288" y="444"/>
      <point x="265" y="398"/>
      <point x="205" y="360" type="curve" smooth="yes"/>
      <point x="33" y="253" type="line" smooth="yes"/>
      <point x="28" y="250"/>
      <point x="26" y="247"/>
      <point x="26" y="244" type="curve" smooth="yes"/>
      <point x="26" y="241"/>
      <point x="27" y="239"/>
      <point x="29" y="236" type="curve" smooth="yes"/>
    </contour>
  </outline>
</glyph>
<glyph name="dvS_DA" format="1">
  <advance width="851"/>
  <outline>
    <contour>
      <point x="730" y="4" type="move" name="blwm_halant"/>
    </contour>
    <contour>
      <point x="730" y="0" type="move" name="blwm_Ukaar"/>
    </contour>
    <contour>
      <point x="776" y="0" type="move" name="blwm_VocalicR"/>
    </contour>
    <contour>
      <point x="636" y="623" type="move" name="abvm_Anusvara"/>
    </contour>
    <contour>
      <point x="730" y="0" type="move" name="blwm_Uukaar"/>
    </contour>
    <contour>
      <point x="761" y="623" type="move" name="abvm_Ekaar"/>
    </contour>
    <component base="dvDA" xOffset="362"/>
    <component base="dvS"/>
  </outline>
</glyph>
<glyph name="dvS_KA" format="1">
  <advance width="1089"/>
  <outline>
    <contour>
      <point x="703" y="0" type="move" name="blwm_halant"/>
    </contour>
    <contour>
      <point x="703" y="0" type="move" name="blwm_Ukaar"/>
    </contour>
    <contour>
      <point x="750" y="0" type="move" name="blwm_VocalicR"/>
    </contour>
    <contour>
      <point x="750" y="623" type="move" name="abvm_Anusvara"/>
    </contour>
    <contour>
      <point x="703" y="0" type="move" name="blwm_Uukaar"/>
    </contour>
    <contour>
      <point x="750" y="623" type="move" name="abvm_Ekaar"/>
    </contour>
    <component base="dvKA" xOffset="364"/>
    <component base="dvS"/>
  </outline>
</glyph>
<glyph name="dvS_K_RA" format="1">
  <advance width="1084"/>
  <outline>
    <contour>
      <point x="697" y="0" type="move" name="blwm_halant"/>
    </contour>
    <contour>
      <point x="697" y="0" type="move" name="blwm_Ukaar"/>
    </contour>
    <contour>
      <point x="745" y="0" type="move" name="blwm_VocalicR"/>
    </contour>
    <contour>
      <point x="745" y="623" type="move" name="abvm_Anusvara"/>
    </contour>
    <contour>
      <point x="697" y="0" type="move" name="blwm_Uukaar"/>
    </contour>
    <contour>
      <point x="745" y="623" type="move" name="abvm_Ekaar"/>
    </contour>
    <component base="dvK_RA" xOffset="359"/>
    <component base="dvS"/>
  </outline>
</glyph>
<glyph name="dvS_PHA" format="1">
  <advance width="1092"/>
  <outline>
    <contour>
      <point x="705" y="0" type="move" name="blwm_halant"/>
    </contour>
    <contour>
      <point x="705" y="0" type="move" name="blwm_Ukaar"/>
    </contour>
    <contour>
      <point x="753" y="0" type="move" name="blwm_VocalicR"/>
    </contour>
    <contour>
      <point x="753" y="623" type="move" name="abvm_Anusvara"/>
    </contour>
    <contour>
      <point x="705" y="0" type="move" name="blwm_Uukaar"/>
    </contour>
    <contour>
      <point x="753" y="623" type="move" name="abvm_Ekaar"/>
    </contour>
    <component base="dvPHA" xOffset="353"/>
    <component base="dvS"/>
  </outline>
</glyph>
<glyph name="dvS_TTA" format="1">
  <advance width="844"/>
  <outline>
    <contour>
      <point x="585" y="43" type="move" name="blwm_halant"/>
    </contour>
    <contour>
      <point x="624" y="-18" type="move" name="blwm_Ukaar"/>
    </contour>
    <contour>
      <point x="718" y="68" type="move" name="blwm_Rashtra"/>
    </contour>
    <contour>
      <point x="673" y="-18" type="move" name="blwm_VocalicR"/>
    </contour>
    <contour>
      <point x="648" y="623" type="move" name="abvm_Anusvara"/>
    </contour>
    <contour>
      <point x="584" y="-20" type="move" name="blwm_Uukaar"/>
    </contour>
    <contour>
      <point x="738" y="623" type="move" name="abvm_Ekaar"/>
    </contour>
    <component base="dvTTA" xOffset="359"/>
    <component base="dvS"/>
  </outline>
</glyph>
<glyph name="dvTTH_NA" format="1">
  <advance width="516"/>
  <outline>
    <contour>
      <point x="341" y="-230" type="move" name="blwm_halant"/>
    </contour>
    <contour>
      <point x="341" y="-230" type="move" name="blwm_Ukaar"/>
    </contour>
    <contour>
      <point x="390" y="-230" type="move" name="blwm_VocalicR"/>
    </contour>
    <contour>
      <point x="284" y="623" type="move" name="abvm_Anusvara"/>
    </contour>
    <contour>
      <point x="341" y="-230" type="move" name="blwm_Uukaar"/>
    </contour>
    <contour>
      <point x="396" y="623" type="move" name="abvm_Ekaar"/>
    </contour>
    <contour>
      <point x="518" y="581" type="line"/>
      <point x="527" y="581"/>
      <point x="531" y="585"/>
      <point x="531" y="593" type="curve" smooth="yes"/>
      <point x="531" y="612" type="line" smooth="yes"/>
      <point x="531" y="619"/>
      <point x="527" y="623"/>
      <point x="518" y="623" type="curve" smooth="yes"/>
      <point x="-2" y="623" type="line" smooth="yes"/>
      <point x="-11" y="623"/>
      <point x="-14" y="619"/>
      <point x="-14" y="612" type="curve" smooth="yes"/>
      <point x="-14" y="593" type="line" smooth="yes"/>
      <point x="-14" y="585"/>
      <point x="-11" y="581"/>
      <point x="-2" y="581" type="curve" smooth="yes"/>
      <point x="339" y="581" type="line" smooth="yes"/>
      <point x="346" y="581"/>
      <point x="348" y="578"/>
      <point x="348" y="572" type="curve" smooth="yes"/>
      <point x="348" y="530" type="line" smooth="yes"/>
      <point x="348" y="469"/>
      <point x="321" y="456"/>
      <point x="277" y="456" type="curve" smooth="yes"/>
      <point x="208" y="456" type="line" smooth="yes"/>
      <point x="121" y="456"/>
      <point x="66" y="401"/>
      <point x="66" y="312" type="curve" smooth="yes"/>
      <point x="66" y="246" type="line" smooth="yes"/>
      <point x="66" y="157"/>
      <point x="121" y="103"/>
      <point x="208" y="103" type="curve" smooth="yes"/>
      <point x="299" y="103" type="line" smooth="yes"/>
      <point x="385" y="103"/>
      <point x="441" y="157"/>
      <point x="441" y="244" type="curve" smooth="yes"/>
      <point x="441" y="318" type="line" smooth="yes"/>
      <point x="441" y="380"/>
      <point x="407" y="426"/>
      <point x="356" y="438" type="curve"/>
      <point x="356" y="442" type="line"/>
      <point x="385" y="457"/>
      <point x="396" y="480"/>
      <point x="396" y="524" type="curve" smooth="yes"/>
      <point x="396" y="572" type="line" smooth="yes"/>
      <point x="396" y="578"/>
      <point x="399" y="581"/>
      <point x="406" y="581" type="curve"/>
    </contour>
    <contour>
      <point x="297" y="412" type="line"/>
      <point x="359" y="412"/>
      <point x="393" y="374"/>
      <point x="393" y="311" type="curve" smooth="yes"/>
      <point x="393" y="248" type="line" smooth="yes"/>
      <point x="393" y="184"/>
      <point x="358" y="147"/>
      <point x="295" y="147" type="curve"/>
      <point x="212" y="147" type="line" smooth="yes"/>
      <point x="149" y="147"/>
      <point x="114" y="184"/>
      <point x="114" y="248" type="curve" smooth="yes"/>
      <point x="114" y="311" type="line" smooth="yes"/>
      <point x="114" y="375"/>
      <point x="148" y="412"/>
      <point x="211" y="412" type="curve" smooth="yes"/>
    </contour>
    <contour>
      <point x="341" y="138" type="line"/>
      <point x="341" y="15" type="line" smooth="yes"/>
      <point x="341" y="9"/>
      <point x="339" y="6"/>
      <point x="332" y="6" type="curve" smooth="yes"/>
      <point x="167" y="6" type="line" smooth="yes"/>
      <point x="103" y="6"/>
      <point x="70" y="-34"/>
      <point x="70" y="-89" type="curve" smooth="yes"/>
      <point x="70" y="-111"/>
      <point x="75" y="-140"/>
      <point x="85" y="-163" type="curve" smooth="yes"/>
      <point x="88" y="-171"/>
      <point x="94" y="-173"/>
      <point x="101" y="-173" type="curve" smooth="yes"/>
      <point x="121" y="-173" type="line" smooth="yes"/>
      <point x="128" y="-173"/>
      <point x="132" y="-170"/>
      <point x="132" y="-164" type="curve" smooth="yes"/>
      <point x="132" y="-159"/>
      <point x="130" y="-155"/>
      <point x="128" y="-146" type="curve" smooth="yes"/>
      <point x="122" y="-130"/>
      <point x="118" y="-112"/>
      <point x="118" y="-95" type="curve" smooth="yes"/>
      <point x="118" y="-60"/>
      <point x="137" y="-37"/>
      <point x="177" y="-37" type="curve" smooth="yes"/>
      <point x="332" y="-37" type="line" smooth="yes"/>
      <point x="339" y="-37"/>
      <point x="341" y="-41"/>
      <point x="341" y="-47" type="curve" smooth="yes"/>
      <point x="341" y="-218" type="line" smooth="yes"/>
      <point x="341" y="-227"/>
      <point x="345" y="-230"/>
      <point x="353" y="-230" type="curve" smooth="yes"/>
      <point x="378" y="-230" type="line" smooth="yes"/>
      <point x="386" y="-230"/>
      <point x="390" y="-227"/>
      <point x="390" y="-218" type="curve" smooth="yes"/>
      <point x="390" y="138" type="line"/>
    </contour>
  </outline>
</glyph>
<glyph name="dvTTH_RA" format="1">
  <advance width="512"/>
  <outline>
    <contour>
      <point x="239" y="-108" type="move" name="blwm_halant"/>
    </contour>
    <contour>
      <point x="264" y="-171" type="move" name="blwm_Ukaar"/>
    </contour>
    <contour>
      <point x="332" y="-171" type="move" name="blwm_VocalicR"/>
    </contour>
    <contour>
      <point x="290" y="623" type="move" name="abvm_Anusvara"/>
    </contour>
    <contour>
      <point x="237" y="-174" type="move" name="blwm_Uukaar"/>
    </contour>
    <contour>
      <point x="392" y="623" type="move" name="abvm_Ekaar"/>
    </contour>
    <component base="dvRashtrasign" xOffset="511" yOffset="69"/>
    <component base="dvTTHA"/>
  </outline>
</glyph>
<glyph name="dvTT_NA" format="1">
  <advance width="494"/>
  <outline>
    <contour>
      <point x="341" y="-230" type="move" name="blwm_halant"/>
    </contour>
    <contour>
      <point x="341" y="-230" type="move" name="blwm_Ukaar"/>
    </contour>
    <contour>
      <point x="390" y="-230" type="move" name="blwm_VocalicR"/>
    </contour>
    <contour>
      <point x="291" y="623" type="move" name="abvm_Anusvara"/>
    </contour>
    <contour>
      <point x="341" y="-230" type="move" name="blwm_Uukaar"/>
    </contour>
    <contour>
      <point x="386" y="623" type="move" name="abvm_Ekaar"/>
    </contour>
    <contour>
      <point x="209" y="440" type="line"/>
      <point x="121" y="440"/>
      <point x="67" y="384"/>
      <point x="67" y="297" type="curve"/>
      <point x="67" y="246" type="line"/>
      <point x="67" y="159"/>
      <point x="121" y="103"/>
      <point x="209" y="103" type="curve" smooth="yes"/>
      <point x="300" y="103" type="line" smooth="yes"/>
      <point x="388" y="103"/>
      <point x="442" y="156"/>
      <point x="442" y="245" type="curve" smooth="yes"/>
      <point x="442" y="285" type="line" smooth="yes"/>
      <point x="442" y="295"/>
      <point x="438" y="298"/>
      <point x="430" y="298" type="curve" smooth="yes"/>
      <point x="406" y="298" type="line" smooth="yes"/>
      <point x="399" y="298"/>
      <point x="395" y="295"/>
      <point x="395" y="285" type="curve" smooth="yes"/>
      <point x="395" y="246" type="line" smooth="yes"/>
      <point x="395" y="181"/>
      <point x="361" y="147"/>
      <point x="298" y="147" type="curve" smooth="yes"/>
      <point x="212" y="147" type="line" smooth="yes"/>
      <point x="149" y="147"/>
      <point x="115" y="183"/>
      <point x="115" y="246" type="curve" smooth="yes"/>
      <point x="115" y="296" type="line" smooth="yes"/>
      <point x="115" y="360"/>
      <point x="149" y="396"/>
      <point x="212" y="396" type="curve"/>
      <point x="361" y="396" type="line" smooth="yes"/>
      <point x="375" y="396"/>
      <point x="386" y="405"/>
      <point x="386" y="422" type="curve" smooth="yes"/>
      <point x="386" y="572" type="line" smooth="yes"/>
      <point x="386" y="578"/>
      <point x="388" y="581"/>
      <point x="395" y="581" type="curve" smooth="yes"/>
      <point x="496" y="581" type="line" smooth="yes"/>
      <point x="505" y="581"/>
      <point x="508" y="585"/>
      <point x="508" y="593" type="curve" smooth="yes"/>
      <point x="508" y="612" type="line" smooth="yes"/>
      <point x="508" y="619"/>
      <point x="505" y="623"/>
      <point x="496" y="623" type="curve" smooth="yes"/>
      <point x="-2" y="623" type="line" smooth="yes"/>
      <point x="-11" y="623"/>
      <point x="-14" y="619"/>
      <point x="-14" y="612" type="curve" smooth="yes"/>
      <point x="-14" y="593" type="line" smooth="yes"/>
      <point x="-14" y="585"/>
      <point x="-11" y="581"/>
      <point x="-2" y="581" type="curve" smooth="yes"/>
      <point x="328" y="581" type="line" smooth="yes"/>
      <point x="335" y="581"/>
      <point x="338" y="578"/>
      <point x="338" y="572" type="curve" smooth="yes"/>
      <point x="338" y="449" type="line" smooth="yes"/>
      <point x="338" y="443"/>
      <point x="335" y="440"/>
      <point x="328" y="440" type="curve"/>
    </contour>
    <contour>
      <point x="341" y="138" type="line"/>
      <point x="341" y="15" type="line" smooth="yes"/>
      <point x="341" y="9"/>
      <point x="339" y="6"/>
      <point x="332" y="6" type="curve" smooth="yes"/>
      <point x="167" y="6" type="line" smooth="yes"/>
      <point x="103" y="6"/>
      <point x="70" y="-34"/>
      <point x="70" y="-89" type="curve" smooth="yes"/>
      <point x="70" y="-111"/>
      <point x="75" y="-140"/>
      <point x="85" y="-163" type="curve" smooth="yes"/>
      <point x="88" y="-171"/>
      <point x="94" y="-173"/>
      <point x="101" y="-173" type="curve" smooth="yes"/>
      <point x="121" y="-173" type="line" smooth="yes"/>
      <point x="128" y="-173"/>
      <point x="132" y="-170"/>
      <point x="132" y="-164" type="curve" smooth="yes"/>
      <point x="132" y="-159"/>
      <point x="130" y="-155"/>
      <point x="128" y="-146" type="curve" smooth="yes"/>
      <point x="122" y="-130"/>
      <point x="118" y="-112"/>
      <point x="118" y="-95" type="curve" smooth="yes"/>
      <point x="118" y="-60"/>
      <point x="137" y="-37"/>
      <point x="177" y="-37" type="curve" smooth="yes"/>
      <point x="332" y="-37" type="line" smooth="yes"/>
      <point x="339" y="-37"/>
      <point x="341" y="-41"/>
      <point x="341" y="-47" type="curve" smooth="yes"/>
      <point x="341" y="-218" type="line" smooth="yes"/>
      <point x="341" y="-227"/>
      <point x="345" y="-230"/>
      <point x="353" y="-230" type="curve" smooth="yes"/>
      <point x="378" y="-230" type="line" smooth="yes"/>
      <point x="386" y="-230"/>
      <point x="390" y="-227"/>
      <point x="390" y="-218" type="curve" smooth="yes"/>
      <point x="390" y="138" type="line"/>
    </contour>
  </outline>
</glyph>
<glyph name="dvTT_RA" format="1">
  <advance width="485"/>
  <outline>
    <contour>
      <point x="239" y="-105" type="move" name="blwm_halant"/>
    </contour>
    <contour>
      <point x="266" y="-171" type="move" name="blwm_Ukaar"/>
    </contour>
    <contour>
      <point x="332" y="-171" type="move" name="blwm_VocalicR"/>
    </contour>
    <contour>
      <point x="289" y="623" type="move" name="abvm_Anusvara"/>
    </contour>
    <contour>
      <point x="233" y="-173" type="move" name="blwm_Uukaar"/>
    </contour>
    <contour>
      <point x="379" y="623" type="move" name="abvm_Ekaar"/>
    </contour>
    <component base="dvRashtrasign" xOffset="510" yOffset="69"/>
    <component base="dvTTA"/>
  </outline>
</glyph>
<glyph name="dvT_PHA" format="1">
  <advance width="992"/>
  <outline>
    <contour>
      <point x="606" y="0" type="move" name="blwm_halant"/>
    </contour>
    <contour>
      <point x="606" y="0" type="move" name="blwm_Ukaar"/>
    </contour>
    <contour>
      <point x="653" y="0" type="move" name="blwm_VocalicR"/>
    </contour>
    <contour>
      <point x="653" y="623" type="move" name="abvm_Anusvara"/>
    </contour>
    <contour>
      <point x="606" y="0" type="move" name="blwm_Uukaar"/>
    </contour>
    <contour>
      <point x="653" y="623" type="move" name="abvm_Ekaar"/>
    </contour>
    <component base="dvT" xOffset="-2"/>
    <component base="dvPHA" xOffset="253"/>
  </outline>
</glyph>
